<?xml version="1.0" encoding="utf-8" standalone="no"?>
<!DOCTYPE svg PUBLIC "-//W3C//DTD SVG 1.1//EN"
  "http://www.w3.org/Graphics/SVG/1.1/DTD/svg11.dtd">
<!-- Created with matplotlib (https://matplotlib.org/) -->
<svg height="720pt" version="1.1" viewBox="0 0 720 720" width="720pt" xmlns="http://www.w3.org/2000/svg" xmlns:xlink="http://www.w3.org/1999/xlink">
 <metadata>
  <rdf:RDF xmlns:cc="http://creativecommons.org/ns#" xmlns:dc="http://purl.org/dc/elements/1.1/" xmlns:rdf="http://www.w3.org/1999/02/22-rdf-syntax-ns#">
   <cc:Work>
    <dc:type rdf:resource="http://purl.org/dc/dcmitype/StillImage"/>
    <dc:date>2020-09-30T11:15:51.831414</dc:date>
    <dc:format>image/svg+xml</dc:format>
    <dc:creator>
     <cc:Agent>
      <dc:title>Matplotlib v3.3.0, https://matplotlib.org/</dc:title>
     </cc:Agent>
    </dc:creator>
   </cc:Work>
  </rdf:RDF>
 </metadata>
 <defs>
  <style type="text/css">*{stroke-linecap:butt;stroke-linejoin:round;}</style>
 </defs>
 <g id="figure_1">
  <g id="patch_1">
   <path d="M 0 720 
L 720 720 
L 720 0 
L 0 0 
z
" style="fill:none;"/>
  </g>
  <g id="axes_1">
   <g id="patch_2">
    <path d="M 90 640.8 
L 648 640.8 
L 648 86.4 
L 90 86.4 
z
" style="fill:none;"/>
   </g>
   <g id="patch_3">
    <path clip-path="url(#p4e7b36f462)" d="M 115.363636 265663.480024 
L 140.727273 265663.480024 
L 140.727273 131.757708 
L 115.363636 131.757708 
z
" style="fill:#000080;opacity:0.4;"/>
   </g>
   <g id="patch_4">
    <path clip-path="url(#p4e7b36f462)" d="M 140.727273 265663.480024 
L 166.090909 265663.480024 
L 166.090909 315.274536 
L 140.727273 315.274536 
z
" style="fill:#000080;opacity:0.4;"/>
   </g>
   <g id="patch_5">
    <path clip-path="url(#p4e7b36f462)" d="M 166.090909 265663.480024 
L 191.454545 265663.480024 
L 191.454545 335.902438 
L 166.090909 335.902438 
z
" style="fill:#000080;opacity:0.4;"/>
   </g>
   <g id="patch_6">
    <path clip-path="url(#p4e7b36f462)" d="M 191.454545 265663.480024 
L 216.818182 265663.480024 
L 216.818182 387.813784 
L 191.454545 387.813784 
z
" style="fill:#000080;opacity:0.4;"/>
   </g>
   <g id="patch_7">
    <path clip-path="url(#p4e7b36f462)" d="M 216.818182 265663.480024 
L 242.181818 265663.480024 
L 242.181818 449.657907 
L 216.818182 449.657907 
z
" style="fill:#000080;opacity:0.4;"/>
   </g>
   <g id="patch_8">
    <path clip-path="url(#p4e7b36f462)" d="M 242.181818 265663.480024 
L 267.545455 265663.480024 
L 267.545455 395.131077 
L 242.181818 395.131077 
z
" style="fill:#000080;opacity:0.4;"/>
   </g>
   <g id="patch_9">
    <path clip-path="url(#p4e7b36f462)" d="M 267.545455 265663.480024 
L 292.909091 265663.480024 
L 292.909091 459.132447 
L 267.545455 459.132447 
z
" style="fill:#000080;opacity:0.4;"/>
   </g>
   <g id="patch_10">
    <path clip-path="url(#p4e7b36f462)" d="M 292.909091 265663.480024 
L 318.272727 265663.480024 
L 318.272727 465.91138 
L 292.909091 465.91138 
z
" style="fill:#000080;opacity:0.4;"/>
   </g>
   <g id="patch_11">
    <path clip-path="url(#p4e7b36f462)" d="M 318.272727 265663.480024 
L 343.636364 265663.480024 
L 343.636364 443.748477 
L 318.272727 443.748477 
z
" style="fill:#000080;opacity:0.4;"/>
   </g>
   <g id="patch_12">
    <path clip-path="url(#p4e7b36f462)" d="M 343.636364 265663.480024 
L 369 265663.480024 
L 369 582.456541 
L 343.636364 582.456541 
z
" style="fill:#000080;opacity:0.4;"/>
   </g>
   <g id="patch_13">
    <path clip-path="url(#p4e7b36f462)" d="M 369 265663.480024 
L 394.363636 265663.480024 
L 394.363636 422.743459 
L 369 422.743459 
z
" style="fill:#000080;opacity:0.4;"/>
   </g>
   <g id="patch_14">
    <path clip-path="url(#p4e7b36f462)" d="M 394.363636 265663.480024 
L 419.727273 265663.480024 
L 419.727273 489.030377 
L 394.363636 489.030377 
z
" style="fill:#000080;opacity:0.4;"/>
   </g>
   <g id="patch_15">
    <path clip-path="url(#p4e7b36f462)" d="M 419.727273 265663.480024 
L 445.090909 265663.480024 
L 445.090909 615.6 
L 419.727273 615.6 
z
" style="fill:#000080;opacity:0.4;"/>
   </g>
   <g id="patch_16">
    <path clip-path="url(#p4e7b36f462)" d="M 445.090909 265663.480024 
L 470.454545 265663.480024 
L 470.454545 484.840511 
L 445.090909 484.840511 
z
" style="fill:#000080;opacity:0.4;"/>
   </g>
   <g id="patch_17">
    <path clip-path="url(#p4e7b36f462)" d="M 470.454545 265663.480024 
L 495.818182 265663.480024 
L 495.818182 573.23493 
L 470.454545 573.23493 
z
" style="fill:#000080;opacity:0.4;"/>
   </g>
   <g id="patch_18">
    <path clip-path="url(#p4e7b36f462)" d="M 495.818182 265663.480024 
L 521.181818 265663.480024 
L 521.181818 512.624462 
L 495.818182 512.624462 
z
" style="fill:#000080;opacity:0.4;"/>
   </g>
   <g id="patch_19">
    <path clip-path="url(#p4e7b36f462)" d="M 521.181818 265663.480024 
L 546.545455 265663.480024 
L 546.545455 489.030377 
L 521.181818 489.030377 
z
" style="fill:#000080;opacity:0.4;"/>
   </g>
   <g id="patch_20">
    <path clip-path="url(#p4e7b36f462)" d="M 546.545455 265663.480024 
L 571.909091 265663.480024 
L 571.909091 615.6 
L 546.545455 615.6 
z
" style="fill:#000080;opacity:0.4;"/>
   </g>
   <g id="patch_21">
    <path clip-path="url(#p4e7b36f462)" d="M 571.909091 265663.480024 
L 597.272727 265663.480024 
L 597.272727 582.456541 
L 571.909091 582.456541 
z
" style="fill:#000080;opacity:0.4;"/>
   </g>
   <g id="patch_22">
    <path clip-path="url(#p4e7b36f462)" d="M 597.272727 265663.480024 
L 622.636364 265663.480024 
L 622.636364 523.605018 
L 597.272727 523.605018 
z
" style="fill:#000080;opacity:0.4;"/>
   </g>
   <g id="patch_23">
    <path clip-path="url(#p4e7b36f462)" d="M 115.363636 265663.480024 
L 140.457447 265663.480024 
L 140.457447 111.6 
L 115.363636 111.6 
z
" style="fill:#ff8c00;opacity:0.4;"/>
   </g>
   <g id="patch_24">
    <path clip-path="url(#p4e7b36f462)" d="M 140.457447 265663.480024 
L 165.551257 265663.480024 
L 165.551257 298.0879 
L 140.457447 298.0879 
z
" style="fill:#ff8c00;opacity:0.4;"/>
   </g>
   <g id="patch_25">
    <path clip-path="url(#p4e7b36f462)" d="M 165.551257 265663.480024 
L 190.645068 265663.480024 
L 190.645068 370.174623 
L 165.551257 370.174623 
z
" style="fill:#ff8c00;opacity:0.4;"/>
   </g>
   <g id="patch_26">
    <path clip-path="url(#p4e7b36f462)" d="M 190.645068 265663.480024 
L 215.738878 265663.480024 
L 215.738878 404.99999 
L 190.645068 404.99999 
z
" style="fill:#ff8c00;opacity:0.4;"/>
   </g>
   <g id="patch_27">
    <path clip-path="url(#p4e7b36f462)" d="M 215.738878 265663.480024 
L 240.832689 265663.480024 
L 240.832689 470.038698 
L 215.738878 470.038698 
z
" style="fill:#ff8c00;opacity:0.4;"/>
   </g>
   <g id="patch_28">
    <path clip-path="url(#p4e7b36f462)" d="M 240.832689 265663.480024 
L 265.926499 265663.480024 
L 265.926499 438.898918 
L 240.832689 438.898918 
z
" style="fill:#ff8c00;opacity:0.4;"/>
   </g>
   <g id="patch_29">
    <path clip-path="url(#p4e7b36f462)" d="M 265.926499 265663.480024 
L 291.020309 265663.480024 
L 291.020309 470.038698 
L 265.926499 470.038698 
z
" style="fill:#ff8c00;opacity:0.4;"/>
   </g>
   <g id="patch_30">
    <path clip-path="url(#p4e7b36f462)" d="M 291.020309 265663.480024 
L 316.11412 265663.480024 
L 316.11412 487.137964 
L 291.020309 487.137964 
z
" style="fill:#ff8c00;opacity:0.4;"/>
   </g>
   <g id="patch_31">
    <path clip-path="url(#p4e7b36f462)" d="M 316.11412 265663.480024 
L 341.20793 265663.480024 
L 341.20793 562.47594 
L 316.11412 562.47594 
z
" style="fill:#ff8c00;opacity:0.4;"/>
   </g>
   <g id="patch_32">
    <path clip-path="url(#p4e7b36f462)" d="M 341.20793 265663.480024 
L 366.301741 265663.480024 
L 366.301741 501.865473 
L 341.20793 501.865473 
z
" style="fill:#ff8c00;opacity:0.4;"/>
   </g>
   <g id="patch_33">
    <path clip-path="url(#p4e7b36f462)" d="M 366.301741 265663.480024 
L 391.395551 265663.480024 
L 391.395551 553.938062 
L 366.301741 553.938062 
z
" style="fill:#ff8c00;opacity:0.4;"/>
   </g>
   <g id="patch_34">
    <path clip-path="url(#p4e7b36f462)" d="M 391.395551 265663.480024 
L 416.489362 265663.480024 
L 416.489362 491.841011 
L 391.395551 491.841011 
z
" style="fill:#ff8c00;opacity:0.4;"/>
   </g>
   <g id="patch_35">
    <path clip-path="url(#p4e7b36f462)" d="M 416.489362 265663.480024 
L 441.583172 265663.480024 
L 441.583172 553.938062 
L 416.489362 553.938062 
z
" style="fill:#ff8c00;opacity:0.4;"/>
   </g>
   <g id="patch_36">
    <path clip-path="url(#p4e7b36f462)" d="M 441.583172 265663.480024 
L 466.676983 265663.480024 
L 466.676983 592.702569 
L 441.583172 592.702569 
z
" style="fill:#ff8c00;opacity:0.4;"/>
   </g>
   <g id="patch_37">
    <path clip-path="url(#p4e7b36f462)" d="M 466.676983 265663.480024 
L 491.770793 265663.480024 
L 491.770793 545.989487 
L 466.676983 545.989487 
z
" style="fill:#ff8c00;opacity:0.4;"/>
   </g>
   <g id="patch_38">
    <path clip-path="url(#p4e7b36f462)" d="M 491.770793 265663.480024 
L 516.864603 265663.480024 
L 516.864603 512.846028 
L 491.770793 512.846028 
z
" style="fill:#ff8c00;opacity:0.4;"/>
   </g>
   <g id="patch_39">
    <path clip-path="url(#p4e7b36f462)" d="M 516.864603 265663.480024 
L 541.958414 265663.480024 
L 541.958414 553.938062 
L 516.864603 553.938062 
z
" style="fill:#ff8c00;opacity:0.4;"/>
   </g>
   <g id="patch_40">
    <path clip-path="url(#p4e7b36f462)" d="M 541.958414 265663.480024 
L 567.052224 265663.480024 
L 567.052224 562.47594 
L 541.958414 562.47594 
z
" style="fill:#ff8c00;opacity:0.4;"/>
   </g>
   <g id="patch_41">
    <path clip-path="url(#p4e7b36f462)" d="M 567.052224 265663.480024 
L 592.146035 265663.480024 
L 592.146035 496.744246 
L 567.052224 496.744246 
z
" style="fill:#ff8c00;opacity:0.4;"/>
   </g>
   <g id="patch_42">
    <path clip-path="url(#p4e7b36f462)" d="M 592.146035 265663.480024 
L 617.239845 265663.480024 
L 617.239845 545.989487 
L 592.146035 545.989487 
z
" style="fill:#ff8c00;opacity:0.4;"/>
   </g>
   <g id="matplotlib.axis_1">
    <g id="xtick_1">
     <g id="line2d_1">
      <defs>
       <path d="M 0 0 
L 0 3.5 
" id="md96ced8613" style="stroke:#000000;stroke-width:0.8;"/>
      </defs>
      <g>
       <use style="stroke:#000000;stroke-width:0.8;" x="115.363636" xlink:href="#md96ced8613" y="640.8"/>
      </g>
     </g>
     <g id="text_1">
      <!-- 0.0 -->
      <g transform="translate(101.623336 660.9301)scale(0.1728 -0.1728)">
       <defs>
        <path d="M 31.78125 66.40625 
Q 24.171875 66.40625 20.328125 58.90625 
Q 16.5 51.421875 16.5 36.375 
Q 16.5 21.390625 20.328125 13.890625 
Q 24.171875 6.390625 31.78125 6.390625 
Q 39.453125 6.390625 43.28125 13.890625 
Q 47.125 21.390625 47.125 36.375 
Q 47.125 51.421875 43.28125 58.90625 
Q 39.453125 66.40625 31.78125 66.40625 
z
M 31.78125 74.21875 
Q 44.046875 74.21875 50.515625 64.515625 
Q 56.984375 54.828125 56.984375 36.375 
Q 56.984375 17.96875 50.515625 8.265625 
Q 44.046875 -1.421875 31.78125 -1.421875 
Q 19.53125 -1.421875 13.0625 8.265625 
Q 6.59375 17.96875 6.59375 36.375 
Q 6.59375 54.828125 13.0625 64.515625 
Q 19.53125 74.21875 31.78125 74.21875 
z
" id="DejaVuSans-48"/>
        <path d="M 10.6875 12.40625 
L 21 12.40625 
L 21 0 
L 10.6875 0 
z
" id="DejaVuSans-46"/>
       </defs>
       <use xlink:href="#DejaVuSans-48"/>
       <use x="63.623047" xlink:href="#DejaVuSans-46"/>
       <use x="95.410156" xlink:href="#DejaVuSans-48"/>
      </g>
     </g>
    </g>
    <g id="xtick_2">
     <g id="line2d_2">
      <g>
       <use style="stroke:#000000;stroke-width:0.8;" x="216.818182" xlink:href="#md96ced8613" y="640.8"/>
      </g>
     </g>
     <g id="text_2">
      <!-- 0.2 -->
      <g transform="translate(203.077882 660.9301)scale(0.1728 -0.1728)">
       <defs>
        <path d="M 19.1875 8.296875 
L 53.609375 8.296875 
L 53.609375 0 
L 7.328125 0 
L 7.328125 8.296875 
Q 12.9375 14.109375 22.625 23.890625 
Q 32.328125 33.6875 34.8125 36.53125 
Q 39.546875 41.84375 41.421875 45.53125 
Q 43.3125 49.21875 43.3125 52.78125 
Q 43.3125 58.59375 39.234375 62.25 
Q 35.15625 65.921875 28.609375 65.921875 
Q 23.96875 65.921875 18.8125 64.3125 
Q 13.671875 62.703125 7.8125 59.421875 
L 7.8125 69.390625 
Q 13.765625 71.78125 18.9375 73 
Q 24.125 74.21875 28.421875 74.21875 
Q 39.75 74.21875 46.484375 68.546875 
Q 53.21875 62.890625 53.21875 53.421875 
Q 53.21875 48.921875 51.53125 44.890625 
Q 49.859375 40.875 45.40625 35.40625 
Q 44.1875 33.984375 37.640625 27.21875 
Q 31.109375 20.453125 19.1875 8.296875 
z
" id="DejaVuSans-50"/>
       </defs>
       <use xlink:href="#DejaVuSans-48"/>
       <use x="63.623047" xlink:href="#DejaVuSans-46"/>
       <use x="95.410156" xlink:href="#DejaVuSans-50"/>
      </g>
     </g>
    </g>
    <g id="xtick_3">
     <g id="line2d_3">
      <g>
       <use style="stroke:#000000;stroke-width:0.8;" x="318.272727" xlink:href="#md96ced8613" y="640.8"/>
      </g>
     </g>
     <g id="text_3">
      <!-- 0.4 -->
      <g transform="translate(304.532427 660.9301)scale(0.1728 -0.1728)">
       <defs>
        <path d="M 37.796875 64.3125 
L 12.890625 25.390625 
L 37.796875 25.390625 
z
M 35.203125 72.90625 
L 47.609375 72.90625 
L 47.609375 25.390625 
L 58.015625 25.390625 
L 58.015625 17.1875 
L 47.609375 17.1875 
L 47.609375 0 
L 37.796875 0 
L 37.796875 17.1875 
L 4.890625 17.1875 
L 4.890625 26.703125 
z
" id="DejaVuSans-52"/>
       </defs>
       <use xlink:href="#DejaVuSans-48"/>
       <use x="63.623047" xlink:href="#DejaVuSans-46"/>
       <use x="95.410156" xlink:href="#DejaVuSans-52"/>
      </g>
     </g>
    </g>
    <g id="xtick_4">
     <g id="line2d_4">
      <g>
       <use style="stroke:#000000;stroke-width:0.8;" x="419.727273" xlink:href="#md96ced8613" y="640.8"/>
      </g>
     </g>
     <g id="text_4">
      <!-- 0.6 -->
      <g transform="translate(405.986973 660.9301)scale(0.1728 -0.1728)">
       <defs>
        <path d="M 33.015625 40.375 
Q 26.375 40.375 22.484375 35.828125 
Q 18.609375 31.296875 18.609375 23.390625 
Q 18.609375 15.53125 22.484375 10.953125 
Q 26.375 6.390625 33.015625 6.390625 
Q 39.65625 6.390625 43.53125 10.953125 
Q 47.40625 15.53125 47.40625 23.390625 
Q 47.40625 31.296875 43.53125 35.828125 
Q 39.65625 40.375 33.015625 40.375 
z
M 52.59375 71.296875 
L 52.59375 62.3125 
Q 48.875 64.0625 45.09375 64.984375 
Q 41.3125 65.921875 37.59375 65.921875 
Q 27.828125 65.921875 22.671875 59.328125 
Q 17.53125 52.734375 16.796875 39.40625 
Q 19.671875 43.65625 24.015625 45.921875 
Q 28.375 48.1875 33.59375 48.1875 
Q 44.578125 48.1875 50.953125 41.515625 
Q 57.328125 34.859375 57.328125 23.390625 
Q 57.328125 12.15625 50.6875 5.359375 
Q 44.046875 -1.421875 33.015625 -1.421875 
Q 20.359375 -1.421875 13.671875 8.265625 
Q 6.984375 17.96875 6.984375 36.375 
Q 6.984375 53.65625 15.1875 63.9375 
Q 23.390625 74.21875 37.203125 74.21875 
Q 40.921875 74.21875 44.703125 73.484375 
Q 48.484375 72.75 52.59375 71.296875 
z
" id="DejaVuSans-54"/>
       </defs>
       <use xlink:href="#DejaVuSans-48"/>
       <use x="63.623047" xlink:href="#DejaVuSans-46"/>
       <use x="95.410156" xlink:href="#DejaVuSans-54"/>
      </g>
     </g>
    </g>
    <g id="xtick_5">
     <g id="line2d_5">
      <g>
       <use style="stroke:#000000;stroke-width:0.8;" x="521.181818" xlink:href="#md96ced8613" y="640.8"/>
      </g>
     </g>
     <g id="text_5">
      <!-- 0.8 -->
      <g transform="translate(507.441518 660.9301)scale(0.1728 -0.1728)">
       <defs>
        <path d="M 31.78125 34.625 
Q 24.75 34.625 20.71875 30.859375 
Q 16.703125 27.09375 16.703125 20.515625 
Q 16.703125 13.921875 20.71875 10.15625 
Q 24.75 6.390625 31.78125 6.390625 
Q 38.8125 6.390625 42.859375 10.171875 
Q 46.921875 13.96875 46.921875 20.515625 
Q 46.921875 27.09375 42.890625 30.859375 
Q 38.875 34.625 31.78125 34.625 
z
M 21.921875 38.8125 
Q 15.578125 40.375 12.03125 44.71875 
Q 8.5 49.078125 8.5 55.328125 
Q 8.5 64.0625 14.71875 69.140625 
Q 20.953125 74.21875 31.78125 74.21875 
Q 42.671875 74.21875 48.875 69.140625 
Q 55.078125 64.0625 55.078125 55.328125 
Q 55.078125 49.078125 51.53125 44.71875 
Q 48 40.375 41.703125 38.8125 
Q 48.828125 37.15625 52.796875 32.3125 
Q 56.78125 27.484375 56.78125 20.515625 
Q 56.78125 9.90625 50.3125 4.234375 
Q 43.84375 -1.421875 31.78125 -1.421875 
Q 19.734375 -1.421875 13.25 4.234375 
Q 6.78125 9.90625 6.78125 20.515625 
Q 6.78125 27.484375 10.78125 32.3125 
Q 14.796875 37.15625 21.921875 38.8125 
z
M 18.3125 54.390625 
Q 18.3125 48.734375 21.84375 45.5625 
Q 25.390625 42.390625 31.78125 42.390625 
Q 38.140625 42.390625 41.71875 45.5625 
Q 45.3125 48.734375 45.3125 54.390625 
Q 45.3125 60.0625 41.71875 63.234375 
Q 38.140625 66.40625 31.78125 66.40625 
Q 25.390625 66.40625 21.84375 63.234375 
Q 18.3125 60.0625 18.3125 54.390625 
z
" id="DejaVuSans-56"/>
       </defs>
       <use xlink:href="#DejaVuSans-48"/>
       <use x="63.623047" xlink:href="#DejaVuSans-46"/>
       <use x="95.410156" xlink:href="#DejaVuSans-56"/>
      </g>
     </g>
    </g>
    <g id="xtick_6">
     <g id="line2d_6">
      <g>
       <use style="stroke:#000000;stroke-width:0.8;" x="622.636364" xlink:href="#md96ced8613" y="640.8"/>
      </g>
     </g>
     <g id="text_6">
      <!-- 1.0 -->
      <g transform="translate(608.896064 660.9301)scale(0.1728 -0.1728)">
       <defs>
        <path d="M 12.40625 8.296875 
L 28.515625 8.296875 
L 28.515625 63.921875 
L 10.984375 60.40625 
L 10.984375 69.390625 
L 28.421875 72.90625 
L 38.28125 72.90625 
L 38.28125 8.296875 
L 54.390625 8.296875 
L 54.390625 0 
L 12.40625 0 
z
" id="DejaVuSans-49"/>
       </defs>
       <use xlink:href="#DejaVuSans-49"/>
       <use x="63.623047" xlink:href="#DejaVuSans-46"/>
       <use x="95.410156" xlink:href="#DejaVuSans-48"/>
      </g>
     </g>
    </g>
    <g id="text_7">
     <!-- predictibilidad -->
     <g transform="translate(307.467 681.6539)scale(0.1728 -0.1728)">
      <defs>
       <path d="M 18.109375 8.203125 
L 18.109375 -20.796875 
L 9.078125 -20.796875 
L 9.078125 54.6875 
L 18.109375 54.6875 
L 18.109375 46.390625 
Q 20.953125 51.265625 25.265625 53.625 
Q 29.59375 56 35.59375 56 
Q 45.5625 56 51.78125 48.09375 
Q 58.015625 40.1875 58.015625 27.296875 
Q 58.015625 14.40625 51.78125 6.484375 
Q 45.5625 -1.421875 35.59375 -1.421875 
Q 29.59375 -1.421875 25.265625 0.953125 
Q 20.953125 3.328125 18.109375 8.203125 
z
M 48.6875 27.296875 
Q 48.6875 37.203125 44.609375 42.84375 
Q 40.53125 48.484375 33.40625 48.484375 
Q 26.265625 48.484375 22.1875 42.84375 
Q 18.109375 37.203125 18.109375 27.296875 
Q 18.109375 17.390625 22.1875 11.75 
Q 26.265625 6.109375 33.40625 6.109375 
Q 40.53125 6.109375 44.609375 11.75 
Q 48.6875 17.390625 48.6875 27.296875 
z
" id="DejaVuSans-112"/>
       <path d="M 41.109375 46.296875 
Q 39.59375 47.171875 37.8125 47.578125 
Q 36.03125 48 33.890625 48 
Q 26.265625 48 22.1875 43.046875 
Q 18.109375 38.09375 18.109375 28.8125 
L 18.109375 0 
L 9.078125 0 
L 9.078125 54.6875 
L 18.109375 54.6875 
L 18.109375 46.1875 
Q 20.953125 51.171875 25.484375 53.578125 
Q 30.03125 56 36.53125 56 
Q 37.453125 56 38.578125 55.875 
Q 39.703125 55.765625 41.0625 55.515625 
z
" id="DejaVuSans-114"/>
       <path d="M 56.203125 29.59375 
L 56.203125 25.203125 
L 14.890625 25.203125 
Q 15.484375 15.921875 20.484375 11.0625 
Q 25.484375 6.203125 34.421875 6.203125 
Q 39.59375 6.203125 44.453125 7.46875 
Q 49.3125 8.734375 54.109375 11.28125 
L 54.109375 2.78125 
Q 49.265625 0.734375 44.1875 -0.34375 
Q 39.109375 -1.421875 33.890625 -1.421875 
Q 20.796875 -1.421875 13.15625 6.1875 
Q 5.515625 13.8125 5.515625 26.8125 
Q 5.515625 40.234375 12.765625 48.109375 
Q 20.015625 56 32.328125 56 
Q 43.359375 56 49.78125 48.890625 
Q 56.203125 41.796875 56.203125 29.59375 
z
M 47.21875 32.234375 
Q 47.125 39.59375 43.09375 43.984375 
Q 39.0625 48.390625 32.421875 48.390625 
Q 24.90625 48.390625 20.390625 44.140625 
Q 15.875 39.890625 15.1875 32.171875 
z
" id="DejaVuSans-101"/>
       <path d="M 45.40625 46.390625 
L 45.40625 75.984375 
L 54.390625 75.984375 
L 54.390625 0 
L 45.40625 0 
L 45.40625 8.203125 
Q 42.578125 3.328125 38.25 0.953125 
Q 33.9375 -1.421875 27.875 -1.421875 
Q 17.96875 -1.421875 11.734375 6.484375 
Q 5.515625 14.40625 5.515625 27.296875 
Q 5.515625 40.1875 11.734375 48.09375 
Q 17.96875 56 27.875 56 
Q 33.9375 56 38.25 53.625 
Q 42.578125 51.265625 45.40625 46.390625 
z
M 14.796875 27.296875 
Q 14.796875 17.390625 18.875 11.75 
Q 22.953125 6.109375 30.078125 6.109375 
Q 37.203125 6.109375 41.296875 11.75 
Q 45.40625 17.390625 45.40625 27.296875 
Q 45.40625 37.203125 41.296875 42.84375 
Q 37.203125 48.484375 30.078125 48.484375 
Q 22.953125 48.484375 18.875 42.84375 
Q 14.796875 37.203125 14.796875 27.296875 
z
" id="DejaVuSans-100"/>
       <path d="M 9.421875 54.6875 
L 18.40625 54.6875 
L 18.40625 0 
L 9.421875 0 
z
M 9.421875 75.984375 
L 18.40625 75.984375 
L 18.40625 64.59375 
L 9.421875 64.59375 
z
" id="DejaVuSans-105"/>
       <path d="M 48.78125 52.59375 
L 48.78125 44.1875 
Q 44.96875 46.296875 41.140625 47.34375 
Q 37.3125 48.390625 33.40625 48.390625 
Q 24.65625 48.390625 19.8125 42.84375 
Q 14.984375 37.3125 14.984375 27.296875 
Q 14.984375 17.28125 19.8125 11.734375 
Q 24.65625 6.203125 33.40625 6.203125 
Q 37.3125 6.203125 41.140625 7.25 
Q 44.96875 8.296875 48.78125 10.40625 
L 48.78125 2.09375 
Q 45.015625 0.34375 40.984375 -0.53125 
Q 36.96875 -1.421875 32.421875 -1.421875 
Q 20.0625 -1.421875 12.78125 6.34375 
Q 5.515625 14.109375 5.515625 27.296875 
Q 5.515625 40.671875 12.859375 48.328125 
Q 20.21875 56 33.015625 56 
Q 37.15625 56 41.109375 55.140625 
Q 45.0625 54.296875 48.78125 52.59375 
z
" id="DejaVuSans-99"/>
       <path d="M 18.3125 70.21875 
L 18.3125 54.6875 
L 36.8125 54.6875 
L 36.8125 47.703125 
L 18.3125 47.703125 
L 18.3125 18.015625 
Q 18.3125 11.328125 20.140625 9.421875 
Q 21.96875 7.515625 27.59375 7.515625 
L 36.8125 7.515625 
L 36.8125 0 
L 27.59375 0 
Q 17.1875 0 13.234375 3.875 
Q 9.28125 7.765625 9.28125 18.015625 
L 9.28125 47.703125 
L 2.6875 47.703125 
L 2.6875 54.6875 
L 9.28125 54.6875 
L 9.28125 70.21875 
z
" id="DejaVuSans-116"/>
       <path d="M 48.6875 27.296875 
Q 48.6875 37.203125 44.609375 42.84375 
Q 40.53125 48.484375 33.40625 48.484375 
Q 26.265625 48.484375 22.1875 42.84375 
Q 18.109375 37.203125 18.109375 27.296875 
Q 18.109375 17.390625 22.1875 11.75 
Q 26.265625 6.109375 33.40625 6.109375 
Q 40.53125 6.109375 44.609375 11.75 
Q 48.6875 17.390625 48.6875 27.296875 
z
M 18.109375 46.390625 
Q 20.953125 51.265625 25.265625 53.625 
Q 29.59375 56 35.59375 56 
Q 45.5625 56 51.78125 48.09375 
Q 58.015625 40.1875 58.015625 27.296875 
Q 58.015625 14.40625 51.78125 6.484375 
Q 45.5625 -1.421875 35.59375 -1.421875 
Q 29.59375 -1.421875 25.265625 0.953125 
Q 20.953125 3.328125 18.109375 8.203125 
L 18.109375 0 
L 9.078125 0 
L 9.078125 75.984375 
L 18.109375 75.984375 
z
" id="DejaVuSans-98"/>
       <path d="M 9.421875 75.984375 
L 18.40625 75.984375 
L 18.40625 0 
L 9.421875 0 
z
" id="DejaVuSans-108"/>
       <path d="M 34.28125 27.484375 
Q 23.390625 27.484375 19.1875 25 
Q 14.984375 22.515625 14.984375 16.5 
Q 14.984375 11.71875 18.140625 8.90625 
Q 21.296875 6.109375 26.703125 6.109375 
Q 34.1875 6.109375 38.703125 11.40625 
Q 43.21875 16.703125 43.21875 25.484375 
L 43.21875 27.484375 
z
M 52.203125 31.203125 
L 52.203125 0 
L 43.21875 0 
L 43.21875 8.296875 
Q 40.140625 3.328125 35.546875 0.953125 
Q 30.953125 -1.421875 24.3125 -1.421875 
Q 15.921875 -1.421875 10.953125 3.296875 
Q 6 8.015625 6 15.921875 
Q 6 25.140625 12.171875 29.828125 
Q 18.359375 34.515625 30.609375 34.515625 
L 43.21875 34.515625 
L 43.21875 35.40625 
Q 43.21875 41.609375 39.140625 45 
Q 35.0625 48.390625 27.6875 48.390625 
Q 23 48.390625 18.546875 47.265625 
Q 14.109375 46.140625 10.015625 43.890625 
L 10.015625 52.203125 
Q 14.9375 54.109375 19.578125 55.046875 
Q 24.21875 56 28.609375 56 
Q 40.484375 56 46.34375 49.84375 
Q 52.203125 43.703125 52.203125 31.203125 
z
" id="DejaVuSans-97"/>
      </defs>
      <use xlink:href="#DejaVuSans-112"/>
      <use x="63.476562" xlink:href="#DejaVuSans-114"/>
      <use x="102.339844" xlink:href="#DejaVuSans-101"/>
      <use x="163.863281" xlink:href="#DejaVuSans-100"/>
      <use x="227.339844" xlink:href="#DejaVuSans-105"/>
      <use x="255.123047" xlink:href="#DejaVuSans-99"/>
      <use x="310.103516" xlink:href="#DejaVuSans-116"/>
      <use x="349.3125" xlink:href="#DejaVuSans-105"/>
      <use x="377.095703" xlink:href="#DejaVuSans-98"/>
      <use x="440.572266" xlink:href="#DejaVuSans-105"/>
      <use x="468.355469" xlink:href="#DejaVuSans-108"/>
      <use x="496.138672" xlink:href="#DejaVuSans-105"/>
      <use x="523.921875" xlink:href="#DejaVuSans-100"/>
      <use x="587.398438" xlink:href="#DejaVuSans-97"/>
      <use x="648.677734" xlink:href="#DejaVuSans-100"/>
     </g>
    </g>
   </g>
   <g id="matplotlib.axis_2">
    <g id="ytick_1">
     <g id="line2d_7">
      <defs>
       <path d="M 0 0 
L -3.5 0 
" id="mf1e4a5b46b" style="stroke:#000000;stroke-width:0.8;"/>
      </defs>
      <g>
       <use style="stroke:#000000;stroke-width:0.8;" x="90" xlink:href="#mf1e4a5b46b" y="385.793299"/>
      </g>
     </g>
     <g id="text_8">
      <!-- $\mathdefault{10^{0}}$ -->
      <g transform="translate(52.5872 392.358349)scale(0.1728 -0.1728)">
       <use transform="translate(0 0.765625)" xlink:href="#DejaVuSans-49"/>
       <use transform="translate(63.623047 0.765625)" xlink:href="#DejaVuSans-48"/>
       <use transform="translate(128.203125 39.046875)scale(0.7)" xlink:href="#DejaVuSans-48"/>
      </g>
     </g>
    </g>
    <g id="ytick_2">
     <g id="line2d_8">
      <g>
       <use style="stroke:#000000;stroke-width:0.8;" x="90" xlink:href="#mf1e4a5b46b" y="120.515612"/>
      </g>
     </g>
     <g id="text_9">
      <!-- $\mathdefault{10^{1}}$ -->
      <g transform="translate(52.5872 127.080662)scale(0.1728 -0.1728)">
       <use transform="translate(0 0.684375)" xlink:href="#DejaVuSans-49"/>
       <use transform="translate(63.623047 0.684375)" xlink:href="#DejaVuSans-48"/>
       <use transform="translate(128.203125 38.965625)scale(0.7)" xlink:href="#DejaVuSans-49"/>
      </g>
     </g>
    </g>
    <g id="ytick_3">
     <g id="line2d_9">
      <defs>
       <path d="M 0 0 
L -2 0 
" id="ma472e9b5d1" style="stroke:#000000;stroke-width:0.6;"/>
      </defs>
      <g>
       <use style="stroke:#000000;stroke-width:0.6;" x="90" xlink:href="#ma472e9b5d1" y="571.214444"/>
      </g>
     </g>
    </g>
    <g id="ytick_4">
     <g id="line2d_10">
      <g>
       <use style="stroke:#000000;stroke-width:0.6;" x="90" xlink:href="#ma472e9b5d1" y="524.501363"/>
      </g>
     </g>
    </g>
    <g id="ytick_5">
     <g id="line2d_11">
      <g>
       <use style="stroke:#000000;stroke-width:0.6;" x="90" xlink:href="#ma472e9b5d1" y="491.357904"/>
      </g>
     </g>
    </g>
    <g id="ytick_6">
     <g id="line2d_12">
      <g>
       <use style="stroke:#000000;stroke-width:0.6;" x="90" xlink:href="#ma472e9b5d1" y="465.64984"/>
      </g>
     </g>
    </g>
    <g id="ytick_7">
     <g id="line2d_13">
      <g>
       <use style="stroke:#000000;stroke-width:0.6;" x="90" xlink:href="#ma472e9b5d1" y="444.644822"/>
      </g>
     </g>
    </g>
    <g id="ytick_8">
     <g id="line2d_14">
      <g>
       <use style="stroke:#000000;stroke-width:0.6;" x="90" xlink:href="#ma472e9b5d1" y="426.885332"/>
      </g>
     </g>
    </g>
    <g id="ytick_9">
     <g id="line2d_15">
      <g>
       <use style="stroke:#000000;stroke-width:0.6;" x="90" xlink:href="#ma472e9b5d1" y="411.501363"/>
      </g>
     </g>
    </g>
    <g id="ytick_10">
     <g id="line2d_16">
      <g>
       <use style="stroke:#000000;stroke-width:0.6;" x="90" xlink:href="#ma472e9b5d1" y="397.93174"/>
      </g>
     </g>
    </g>
    <g id="ytick_11">
     <g id="line2d_17">
      <g>
       <use style="stroke:#000000;stroke-width:0.6;" x="90" xlink:href="#ma472e9b5d1" y="305.936758"/>
      </g>
     </g>
    </g>
    <g id="ytick_12">
     <g id="line2d_18">
      <g>
       <use style="stroke:#000000;stroke-width:0.6;" x="90" xlink:href="#ma472e9b5d1" y="259.223676"/>
      </g>
     </g>
    </g>
    <g id="ytick_13">
     <g id="line2d_19">
      <g>
       <use style="stroke:#000000;stroke-width:0.6;" x="90" xlink:href="#ma472e9b5d1" y="226.080217"/>
      </g>
     </g>
    </g>
    <g id="ytick_14">
     <g id="line2d_20">
      <g>
       <use style="stroke:#000000;stroke-width:0.6;" x="90" xlink:href="#ma472e9b5d1" y="200.372153"/>
      </g>
     </g>
    </g>
    <g id="ytick_15">
     <g id="line2d_21">
      <g>
       <use style="stroke:#000000;stroke-width:0.6;" x="90" xlink:href="#ma472e9b5d1" y="179.367135"/>
      </g>
     </g>
    </g>
    <g id="ytick_16">
     <g id="line2d_22">
      <g>
       <use style="stroke:#000000;stroke-width:0.6;" x="90" xlink:href="#ma472e9b5d1" y="161.607646"/>
      </g>
     </g>
    </g>
    <g id="ytick_17">
     <g id="line2d_23">
      <g>
       <use style="stroke:#000000;stroke-width:0.6;" x="90" xlink:href="#ma472e9b5d1" y="146.223676"/>
      </g>
     </g>
    </g>
    <g id="ytick_18">
     <g id="line2d_24">
      <g>
       <use style="stroke:#000000;stroke-width:0.6;" x="90" xlink:href="#ma472e9b5d1" y="132.654053"/>
      </g>
     </g>
    </g>
   </g>
   <g id="patch_43">
    <path d="M 90 640.8 
L 90 86.4 
" style="fill:none;stroke:#000000;stroke-linecap:square;stroke-linejoin:miter;stroke-width:0.8;"/>
   </g>
   <g id="patch_44">
    <path d="M 648 640.8 
L 648 86.4 
" style="fill:none;stroke:#000000;stroke-linecap:square;stroke-linejoin:miter;stroke-width:0.8;"/>
   </g>
   <g id="patch_45">
    <path d="M 90 640.8 
L 648 640.8 
" style="fill:none;stroke:#000000;stroke-linecap:square;stroke-linejoin:miter;stroke-width:0.8;"/>
   </g>
   <g id="patch_46">
    <path d="M 90 86.4 
L 648 86.4 
" style="fill:none;stroke:#000000;stroke-linecap:square;stroke-linejoin:miter;stroke-width:0.8;"/>
   </g>
  </g>
 </g>
 <defs>
  <clipPath id="p4e7b36f462">
   <rect height="554.4" width="558" x="90" y="86.4"/>
  </clipPath>
 </defs>
</svg>
