<?xml version="1.0" encoding="utf-8" standalone="no"?>
<!DOCTYPE svg PUBLIC "-//W3C//DTD SVG 1.1//EN"
  "http://www.w3.org/Graphics/SVG/1.1/DTD/svg11.dtd">
<!-- Created with matplotlib (https://matplotlib.org/) -->
<svg height="720pt" version="1.1" viewBox="0 0 720 720" width="720pt" xmlns="http://www.w3.org/2000/svg" xmlns:xlink="http://www.w3.org/1999/xlink">
 <metadata>
  <rdf:RDF xmlns:cc="http://creativecommons.org/ns#" xmlns:dc="http://purl.org/dc/elements/1.1/" xmlns:rdf="http://www.w3.org/1999/02/22-rdf-syntax-ns#">
   <cc:Work>
    <dc:type rdf:resource="http://purl.org/dc/dcmitype/StillImage"/>
    <dc:date>2020-09-30T11:15:44.523543</dc:date>
    <dc:format>image/svg+xml</dc:format>
    <dc:creator>
     <cc:Agent>
      <dc:title>Matplotlib v3.3.0, https://matplotlib.org/</dc:title>
     </cc:Agent>
    </dc:creator>
   </cc:Work>
  </rdf:RDF>
 </metadata>
 <defs>
  <style type="text/css">*{stroke-linecap:butt;stroke-linejoin:round;}</style>
 </defs>
 <g id="figure_1">
  <g id="patch_1">
   <path d="M 0 720 
L 720 720 
L 720 0 
L 0 0 
z
" style="fill:none;"/>
  </g>
  <g id="axes_1">
   <g id="patch_2">
    <path d="M 90 640.8 
L 648 640.8 
L 648 86.4 
L 90 86.4 
z
" style="fill:none;"/>
   </g>
   <g id="QuadMesh_1">
    <path clip-path="url(#p1e0a4d7596)" d="M 90 640.8 
L 145.8 640.8 
L 145.8 585.36 
L 90 585.36 
L 90 640.8 
" style="fill:#00441b;"/>
    <path clip-path="url(#p1e0a4d7596)" d="M 145.8 640.8 
L 201.6 640.8 
L 201.6 585.36 
L 145.8 585.36 
L 145.8 640.8 
" style="fill:#39a257;"/>
    <path clip-path="url(#p1e0a4d7596)" d="M 201.6 640.8 
L 257.4 640.8 
L 257.4 585.36 
L 201.6 585.36 
L 201.6 640.8 
" style="fill:#53b466;"/>
    <path clip-path="url(#p1e0a4d7596)" d="M 257.4 640.8 
L 313.2 640.8 
L 313.2 585.36 
L 257.4 585.36 
L 257.4 640.8 
" style="fill:#b7e2b1;"/>
    <path clip-path="url(#p1e0a4d7596)" d="M 313.2 640.8 
L 369 640.8 
L 369 585.36 
L 313.2 585.36 
L 313.2 640.8 
" style="fill:#e4f5df;"/>
    <path clip-path="url(#p1e0a4d7596)" d="M 369 640.8 
L 424.8 640.8 
L 424.8 585.36 
L 369 585.36 
L 369 640.8 
" style="fill:#d2edcc;"/>
    <path clip-path="url(#p1e0a4d7596)" d="M 424.8 640.8 
L 480.6 640.8 
L 480.6 585.36 
L 424.8 585.36 
L 424.8 640.8 
" style="fill:#d2edcc;"/>
    <path clip-path="url(#p1e0a4d7596)" d="M 480.6 640.8 
L 536.4 640.8 
L 536.4 585.36 
L 480.6 585.36 
L 480.6 640.8 
" style="fill:#f7fcf5;"/>
    <path clip-path="url(#p1e0a4d7596)" d="M 536.4 640.8 
L 592.2 640.8 
L 592.2 585.36 
L 536.4 585.36 
L 536.4 640.8 
" style="fill:none;"/>
    <path clip-path="url(#p1e0a4d7596)" d="M 592.2 640.8 
L 648 640.8 
L 648 585.36 
L 592.2 585.36 
L 592.2 640.8 
" style="fill:none;"/>
    <path clip-path="url(#p1e0a4d7596)" d="M 90 585.36 
L 145.8 585.36 
L 145.8 529.92 
L 90 529.92 
L 90 585.36 
" style="fill:#8dd08a;"/>
    <path clip-path="url(#p1e0a4d7596)" d="M 145.8 585.36 
L 201.6 585.36 
L 201.6 529.92 
L 145.8 529.92 
L 145.8 585.36 
" style="fill:#80ca80;"/>
    <path clip-path="url(#p1e0a4d7596)" d="M 201.6 585.36 
L 257.4 585.36 
L 257.4 529.92 
L 201.6 529.92 
L 201.6 585.36 
" style="fill:#a4da9e;"/>
    <path clip-path="url(#p1e0a4d7596)" d="M 257.4 585.36 
L 313.2 585.36 
L 313.2 529.92 
L 257.4 529.92 
L 257.4 585.36 
" style="fill:#9bd696;"/>
    <path clip-path="url(#p1e0a4d7596)" d="M 313.2 585.36 
L 369 585.36 
L 369 529.92 
L 313.2 529.92 
L 313.2 585.36 
" style="fill:none;"/>
    <path clip-path="url(#p1e0a4d7596)" d="M 369 585.36 
L 424.8 585.36 
L 424.8 529.92 
L 369 529.92 
L 369 585.36 
" style="fill:#f7fcf5;"/>
    <path clip-path="url(#p1e0a4d7596)" d="M 424.8 585.36 
L 480.6 585.36 
L 480.6 529.92 
L 424.8 529.92 
L 424.8 585.36 
" style="fill:#f7fcf5;"/>
    <path clip-path="url(#p1e0a4d7596)" d="M 480.6 585.36 
L 536.4 585.36 
L 536.4 529.92 
L 480.6 529.92 
L 480.6 585.36 
" style="fill:none;"/>
    <path clip-path="url(#p1e0a4d7596)" d="M 536.4 585.36 
L 592.2 585.36 
L 592.2 529.92 
L 536.4 529.92 
L 536.4 585.36 
" style="fill:#e4f5df;"/>
    <path clip-path="url(#p1e0a4d7596)" d="M 592.2 585.36 
L 648 585.36 
L 648 529.92 
L 592.2 529.92 
L 592.2 585.36 
" style="fill:none;"/>
    <path clip-path="url(#p1e0a4d7596)" d="M 90 529.92 
L 145.8 529.92 
L 145.8 474.48 
L 90 474.48 
L 90 529.92 
" style="fill:#acdea6;"/>
    <path clip-path="url(#p1e0a4d7596)" d="M 145.8 529.92 
L 201.6 529.92 
L 201.6 474.48 
L 145.8 474.48 
L 145.8 529.92 
" style="fill:#d2edcc;"/>
    <path clip-path="url(#p1e0a4d7596)" d="M 201.6 529.92 
L 257.4 529.92 
L 257.4 474.48 
L 201.6 474.48 
L 201.6 529.92 
" style="fill:#8dd08a;"/>
    <path clip-path="url(#p1e0a4d7596)" d="M 257.4 529.92 
L 313.2 529.92 
L 313.2 474.48 
L 257.4 474.48 
L 257.4 529.92 
" style="fill:#b7e2b1;"/>
    <path clip-path="url(#p1e0a4d7596)" d="M 313.2 529.92 
L 369 529.92 
L 369 474.48 
L 313.2 474.48 
L 313.2 529.92 
" style="fill:#d2edcc;"/>
    <path clip-path="url(#p1e0a4d7596)" d="M 369 529.92 
L 424.8 529.92 
L 424.8 474.48 
L 369 474.48 
L 369 529.92 
" style="fill:#acdea6;"/>
    <path clip-path="url(#p1e0a4d7596)" d="M 424.8 529.92 
L 480.6 529.92 
L 480.6 474.48 
L 424.8 474.48 
L 424.8 529.92 
" style="fill:#d2edcc;"/>
    <path clip-path="url(#p1e0a4d7596)" d="M 480.6 529.92 
L 536.4 529.92 
L 536.4 474.48 
L 480.6 474.48 
L 480.6 529.92 
" style="fill:#e4f5df;"/>
    <path clip-path="url(#p1e0a4d7596)" d="M 536.4 529.92 
L 592.2 529.92 
L 592.2 474.48 
L 536.4 474.48 
L 536.4 529.92 
" style="fill:#e4f5df;"/>
    <path clip-path="url(#p1e0a4d7596)" d="M 592.2 529.92 
L 648 529.92 
L 648 474.48 
L 592.2 474.48 
L 592.2 529.92 
" style="fill:#f7fcf5;"/>
    <path clip-path="url(#p1e0a4d7596)" d="M 90 474.48 
L 145.8 474.48 
L 145.8 419.04 
L 90 419.04 
L 90 474.48 
" style="fill:none;"/>
    <path clip-path="url(#p1e0a4d7596)" d="M 145.8 474.48 
L 201.6 474.48 
L 201.6 419.04 
L 145.8 419.04 
L 145.8 474.48 
" style="fill:none;"/>
    <path clip-path="url(#p1e0a4d7596)" d="M 201.6 474.48 
L 257.4 474.48 
L 257.4 419.04 
L 201.6 419.04 
L 201.6 474.48 
" style="fill:#c4e8bd;"/>
    <path clip-path="url(#p1e0a4d7596)" d="M 257.4 474.48 
L 313.2 474.48 
L 313.2 419.04 
L 257.4 419.04 
L 257.4 474.48 
" style="fill:#c4e8bd;"/>
    <path clip-path="url(#p1e0a4d7596)" d="M 313.2 474.48 
L 369 474.48 
L 369 419.04 
L 313.2 419.04 
L 313.2 474.48 
" style="fill:#f7fcf5;"/>
    <path clip-path="url(#p1e0a4d7596)" d="M 369 474.48 
L 424.8 474.48 
L 424.8 419.04 
L 369 419.04 
L 369 474.48 
" style="fill:#c4e8bd;"/>
    <path clip-path="url(#p1e0a4d7596)" d="M 424.8 474.48 
L 480.6 474.48 
L 480.6 419.04 
L 424.8 419.04 
L 424.8 474.48 
" style="fill:#c4e8bd;"/>
    <path clip-path="url(#p1e0a4d7596)" d="M 480.6 474.48 
L 536.4 474.48 
L 536.4 419.04 
L 480.6 419.04 
L 480.6 474.48 
" style="fill:#e4f5df;"/>
    <path clip-path="url(#p1e0a4d7596)" d="M 536.4 474.48 
L 592.2 474.48 
L 592.2 419.04 
L 536.4 419.04 
L 536.4 474.48 
" style="fill:#d2edcc;"/>
    <path clip-path="url(#p1e0a4d7596)" d="M 592.2 474.48 
L 648 474.48 
L 648 419.04 
L 592.2 419.04 
L 592.2 474.48 
" style="fill:#f7fcf5;"/>
    <path clip-path="url(#p1e0a4d7596)" d="M 90 419.04 
L 145.8 419.04 
L 145.8 363.6 
L 90 363.6 
L 90 419.04 
" style="fill:none;"/>
    <path clip-path="url(#p1e0a4d7596)" d="M 145.8 419.04 
L 201.6 419.04 
L 201.6 363.6 
L 145.8 363.6 
L 145.8 419.04 
" style="fill:#d2edcc;"/>
    <path clip-path="url(#p1e0a4d7596)" d="M 201.6 419.04 
L 257.4 419.04 
L 257.4 363.6 
L 201.6 363.6 
L 201.6 419.04 
" style="fill:#d2edcc;"/>
    <path clip-path="url(#p1e0a4d7596)" d="M 257.4 419.04 
L 313.2 419.04 
L 313.2 363.6 
L 257.4 363.6 
L 257.4 419.04 
" style="fill:#b7e2b1;"/>
    <path clip-path="url(#p1e0a4d7596)" d="M 313.2 419.04 
L 369 419.04 
L 369 363.6 
L 313.2 363.6 
L 313.2 419.04 
" style="fill:#f7fcf5;"/>
    <path clip-path="url(#p1e0a4d7596)" d="M 369 419.04 
L 424.8 419.04 
L 424.8 363.6 
L 369 363.6 
L 369 419.04 
" style="fill:none;"/>
    <path clip-path="url(#p1e0a4d7596)" d="M 424.8 419.04 
L 480.6 419.04 
L 480.6 363.6 
L 424.8 363.6 
L 424.8 419.04 
" style="fill:#c4e8bd;"/>
    <path clip-path="url(#p1e0a4d7596)" d="M 480.6 419.04 
L 536.4 419.04 
L 536.4 363.6 
L 480.6 363.6 
L 480.6 419.04 
" style="fill:#e4f5df;"/>
    <path clip-path="url(#p1e0a4d7596)" d="M 536.4 419.04 
L 592.2 419.04 
L 592.2 363.6 
L 536.4 363.6 
L 536.4 419.04 
" style="fill:#e4f5df;"/>
    <path clip-path="url(#p1e0a4d7596)" d="M 592.2 419.04 
L 648 419.04 
L 648 363.6 
L 592.2 363.6 
L 592.2 419.04 
" style="fill:#e4f5df;"/>
    <path clip-path="url(#p1e0a4d7596)" d="M 90 363.6 
L 145.8 363.6 
L 145.8 308.16 
L 90 308.16 
L 90 363.6 
" style="fill:#f7fcf5;"/>
    <path clip-path="url(#p1e0a4d7596)" d="M 145.8 363.6 
L 201.6 363.6 
L 201.6 308.16 
L 145.8 308.16 
L 145.8 363.6 
" style="fill:none;"/>
    <path clip-path="url(#p1e0a4d7596)" d="M 201.6 363.6 
L 257.4 363.6 
L 257.4 308.16 
L 201.6 308.16 
L 201.6 363.6 
" style="fill:#f7fcf5;"/>
    <path clip-path="url(#p1e0a4d7596)" d="M 257.4 363.6 
L 313.2 363.6 
L 313.2 308.16 
L 257.4 308.16 
L 257.4 363.6 
" style="fill:#b7e2b1;"/>
    <path clip-path="url(#p1e0a4d7596)" d="M 313.2 363.6 
L 369 363.6 
L 369 308.16 
L 313.2 308.16 
L 313.2 363.6 
" style="fill:#b7e2b1;"/>
    <path clip-path="url(#p1e0a4d7596)" d="M 369 363.6 
L 424.8 363.6 
L 424.8 308.16 
L 369 308.16 
L 369 363.6 
" style="fill:#86cc85;"/>
    <path clip-path="url(#p1e0a4d7596)" d="M 424.8 363.6 
L 480.6 363.6 
L 480.6 308.16 
L 424.8 308.16 
L 424.8 363.6 
" style="fill:#70c274;"/>
    <path clip-path="url(#p1e0a4d7596)" d="M 480.6 363.6 
L 536.4 363.6 
L 536.4 308.16 
L 480.6 308.16 
L 480.6 363.6 
" style="fill:#94d390;"/>
    <path clip-path="url(#p1e0a4d7596)" d="M 536.4 363.6 
L 592.2 363.6 
L 592.2 308.16 
L 536.4 308.16 
L 536.4 363.6 
" style="fill:#b7e2b1;"/>
    <path clip-path="url(#p1e0a4d7596)" d="M 592.2 363.6 
L 648 363.6 
L 648 308.16 
L 592.2 308.16 
L 592.2 363.6 
" style="fill:#d2edcc;"/>
    <path clip-path="url(#p1e0a4d7596)" d="M 90 308.16 
L 145.8 308.16 
L 145.8 252.72 
L 90 252.72 
L 90 308.16 
" style="fill:#f7fcf5;"/>
    <path clip-path="url(#p1e0a4d7596)" d="M 145.8 308.16 
L 201.6 308.16 
L 201.6 252.72 
L 145.8 252.72 
L 145.8 308.16 
" style="fill:#e4f5df;"/>
    <path clip-path="url(#p1e0a4d7596)" d="M 201.6 308.16 
L 257.4 308.16 
L 257.4 252.72 
L 201.6 252.72 
L 201.6 308.16 
" style="fill:none;"/>
    <path clip-path="url(#p1e0a4d7596)" d="M 257.4 308.16 
L 313.2 308.16 
L 313.2 252.72 
L 257.4 252.72 
L 257.4 308.16 
" style="fill:#e4f5df;"/>
    <path clip-path="url(#p1e0a4d7596)" d="M 313.2 308.16 
L 369 308.16 
L 369 252.72 
L 313.2 252.72 
L 313.2 308.16 
" style="fill:#e4f5df;"/>
    <path clip-path="url(#p1e0a4d7596)" d="M 369 308.16 
L 424.8 308.16 
L 424.8 252.72 
L 369 252.72 
L 369 308.16 
" style="fill:#a4da9e;"/>
    <path clip-path="url(#p1e0a4d7596)" d="M 424.8 308.16 
L 480.6 308.16 
L 480.6 252.72 
L 424.8 252.72 
L 424.8 308.16 
" style="fill:#acdea6;"/>
    <path clip-path="url(#p1e0a4d7596)" d="M 480.6 308.16 
L 536.4 308.16 
L 536.4 252.72 
L 480.6 252.72 
L 480.6 308.16 
" style="fill:#94d390;"/>
    <path clip-path="url(#p1e0a4d7596)" d="M 536.4 308.16 
L 592.2 308.16 
L 592.2 252.72 
L 536.4 252.72 
L 536.4 308.16 
" style="fill:#c4e8bd;"/>
    <path clip-path="url(#p1e0a4d7596)" d="M 592.2 308.16 
L 648 308.16 
L 648 252.72 
L 592.2 252.72 
L 592.2 308.16 
" style="fill:#b7e2b1;"/>
    <path clip-path="url(#p1e0a4d7596)" d="M 90 252.72 
L 145.8 252.72 
L 145.8 197.28 
L 90 197.28 
L 90 252.72 
" style="fill:#f7fcf5;"/>
    <path clip-path="url(#p1e0a4d7596)" d="M 145.8 252.72 
L 201.6 252.72 
L 201.6 197.28 
L 145.8 197.28 
L 145.8 252.72 
" style="fill:none;"/>
    <path clip-path="url(#p1e0a4d7596)" d="M 201.6 252.72 
L 257.4 252.72 
L 257.4 197.28 
L 201.6 197.28 
L 201.6 252.72 
" style="fill:none;"/>
    <path clip-path="url(#p1e0a4d7596)" d="M 257.4 252.72 
L 313.2 252.72 
L 313.2 197.28 
L 257.4 197.28 
L 257.4 252.72 
" style="fill:#e4f5df;"/>
    <path clip-path="url(#p1e0a4d7596)" d="M 313.2 252.72 
L 369 252.72 
L 369 197.28 
L 313.2 197.28 
L 313.2 252.72 
" style="fill:#e4f5df;"/>
    <path clip-path="url(#p1e0a4d7596)" d="M 369 252.72 
L 424.8 252.72 
L 424.8 197.28 
L 369 197.28 
L 369 252.72 
" style="fill:#c4e8bd;"/>
    <path clip-path="url(#p1e0a4d7596)" d="M 424.8 252.72 
L 480.6 252.72 
L 480.6 197.28 
L 424.8 197.28 
L 424.8 252.72 
" style="fill:#86cc85;"/>
    <path clip-path="url(#p1e0a4d7596)" d="M 480.6 252.72 
L 536.4 252.72 
L 536.4 197.28 
L 480.6 197.28 
L 480.6 252.72 
" style="fill:#acdea6;"/>
    <path clip-path="url(#p1e0a4d7596)" d="M 536.4 252.72 
L 592.2 252.72 
L 592.2 197.28 
L 536.4 197.28 
L 536.4 252.72 
" style="fill:#86cc85;"/>
    <path clip-path="url(#p1e0a4d7596)" d="M 592.2 252.72 
L 648 252.72 
L 648 197.28 
L 592.2 197.28 
L 592.2 252.72 
" style="fill:#5ab769;"/>
    <path clip-path="url(#p1e0a4d7596)" d="M 90 197.28 
L 145.8 197.28 
L 145.8 141.84 
L 90 141.84 
L 90 197.28 
" style="fill:none;"/>
    <path clip-path="url(#p1e0a4d7596)" d="M 145.8 197.28 
L 201.6 197.28 
L 201.6 141.84 
L 145.8 141.84 
L 145.8 197.28 
" style="fill:none;"/>
    <path clip-path="url(#p1e0a4d7596)" d="M 201.6 197.28 
L 257.4 197.28 
L 257.4 141.84 
L 201.6 141.84 
L 201.6 197.28 
" style="fill:#f7fcf5;"/>
    <path clip-path="url(#p1e0a4d7596)" d="M 257.4 197.28 
L 313.2 197.28 
L 313.2 141.84 
L 257.4 141.84 
L 257.4 197.28 
" style="fill:#d2edcc;"/>
    <path clip-path="url(#p1e0a4d7596)" d="M 313.2 197.28 
L 369 197.28 
L 369 141.84 
L 313.2 141.84 
L 313.2 197.28 
" style="fill:#f7fcf5;"/>
    <path clip-path="url(#p1e0a4d7596)" d="M 369 197.28 
L 424.8 197.28 
L 424.8 141.84 
L 369 141.84 
L 369 197.28 
" style="fill:#c4e8bd;"/>
    <path clip-path="url(#p1e0a4d7596)" d="M 424.8 197.28 
L 480.6 197.28 
L 480.6 141.84 
L 424.8 141.84 
L 424.8 197.28 
" style="fill:#a4da9e;"/>
    <path clip-path="url(#p1e0a4d7596)" d="M 480.6 197.28 
L 536.4 197.28 
L 536.4 141.84 
L 480.6 141.84 
L 480.6 197.28 
" style="fill:#acdea6;"/>
    <path clip-path="url(#p1e0a4d7596)" d="M 536.4 197.28 
L 592.2 197.28 
L 592.2 141.84 
L 536.4 141.84 
L 536.4 197.28 
" style="fill:#80ca80;"/>
    <path clip-path="url(#p1e0a4d7596)" d="M 592.2 197.28 
L 648 197.28 
L 648 141.84 
L 592.2 141.84 
L 592.2 197.28 
" style="fill:#39a257;"/>
    <path clip-path="url(#p1e0a4d7596)" d="M 90 141.84 
L 145.8 141.84 
L 145.8 86.4 
L 90 86.4 
L 90 141.84 
" style="fill:none;"/>
    <path clip-path="url(#p1e0a4d7596)" d="M 145.8 141.84 
L 201.6 141.84 
L 201.6 86.4 
L 145.8 86.4 
L 145.8 141.84 
" style="fill:none;"/>
    <path clip-path="url(#p1e0a4d7596)" d="M 201.6 141.84 
L 257.4 141.84 
L 257.4 86.4 
L 201.6 86.4 
L 201.6 141.84 
" style="fill:none;"/>
    <path clip-path="url(#p1e0a4d7596)" d="M 257.4 141.84 
L 313.2 141.84 
L 313.2 86.4 
L 257.4 86.4 
L 257.4 141.84 
" style="fill:none;"/>
    <path clip-path="url(#p1e0a4d7596)" d="M 313.2 141.84 
L 369 141.84 
L 369 86.4 
L 313.2 86.4 
L 313.2 141.84 
" style="fill:#f7fcf5;"/>
    <path clip-path="url(#p1e0a4d7596)" d="M 369 141.84 
L 424.8 141.84 
L 424.8 86.4 
L 369 86.4 
L 369 141.84 
" style="fill:#d2edcc;"/>
    <path clip-path="url(#p1e0a4d7596)" d="M 424.8 141.84 
L 480.6 141.84 
L 480.6 86.4 
L 424.8 86.4 
L 424.8 141.84 
" style="fill:#80ca80;"/>
    <path clip-path="url(#p1e0a4d7596)" d="M 480.6 141.84 
L 536.4 141.84 
L 536.4 86.4 
L 480.6 86.4 
L 480.6 141.84 
" style="fill:#86cc85;"/>
    <path clip-path="url(#p1e0a4d7596)" d="M 536.4 141.84 
L 592.2 141.84 
L 592.2 86.4 
L 536.4 86.4 
L 536.4 141.84 
" style="fill:#2f984f;"/>
    <path clip-path="url(#p1e0a4d7596)" d="M 592.2 141.84 
L 648 141.84 
L 648 86.4 
L 592.2 86.4 
L 592.2 141.84 
" style="fill:#077331;"/>
   </g>
   <g id="matplotlib.axis_1">
    <g id="xtick_1">
     <g id="line2d_1">
      <defs>
       <path d="M 0 0 
L 0 3.5 
" id="mafd07b0d61" style="stroke:#000000;stroke-width:0.8;"/>
      </defs>
      <g>
       <use style="stroke:#000000;stroke-width:0.8;" x="90" xlink:href="#mafd07b0d61" y="640.8"/>
      </g>
     </g>
     <g id="text_1">
      <!-- 0.0 -->
      <g transform="translate(76.2597 660.9301)scale(0.1728 -0.1728)">
       <defs>
        <path d="M 31.78125 66.40625 
Q 24.171875 66.40625 20.328125 58.90625 
Q 16.5 51.421875 16.5 36.375 
Q 16.5 21.390625 20.328125 13.890625 
Q 24.171875 6.390625 31.78125 6.390625 
Q 39.453125 6.390625 43.28125 13.890625 
Q 47.125 21.390625 47.125 36.375 
Q 47.125 51.421875 43.28125 58.90625 
Q 39.453125 66.40625 31.78125 66.40625 
z
M 31.78125 74.21875 
Q 44.046875 74.21875 50.515625 64.515625 
Q 56.984375 54.828125 56.984375 36.375 
Q 56.984375 17.96875 50.515625 8.265625 
Q 44.046875 -1.421875 31.78125 -1.421875 
Q 19.53125 -1.421875 13.0625 8.265625 
Q 6.59375 17.96875 6.59375 36.375 
Q 6.59375 54.828125 13.0625 64.515625 
Q 19.53125 74.21875 31.78125 74.21875 
z
" id="DejaVuSans-48"/>
        <path d="M 10.6875 12.40625 
L 21 12.40625 
L 21 0 
L 10.6875 0 
z
" id="DejaVuSans-46"/>
       </defs>
       <use xlink:href="#DejaVuSans-48"/>
       <use x="63.623047" xlink:href="#DejaVuSans-46"/>
       <use x="95.410156" xlink:href="#DejaVuSans-48"/>
      </g>
     </g>
    </g>
    <g id="xtick_2">
     <g id="line2d_2">
      <g>
       <use style="stroke:#000000;stroke-width:0.8;" x="201.6" xlink:href="#mafd07b0d61" y="640.8"/>
      </g>
     </g>
     <g id="text_2">
      <!-- 0.2 -->
      <g transform="translate(187.8597 660.9301)scale(0.1728 -0.1728)">
       <defs>
        <path d="M 19.1875 8.296875 
L 53.609375 8.296875 
L 53.609375 0 
L 7.328125 0 
L 7.328125 8.296875 
Q 12.9375 14.109375 22.625 23.890625 
Q 32.328125 33.6875 34.8125 36.53125 
Q 39.546875 41.84375 41.421875 45.53125 
Q 43.3125 49.21875 43.3125 52.78125 
Q 43.3125 58.59375 39.234375 62.25 
Q 35.15625 65.921875 28.609375 65.921875 
Q 23.96875 65.921875 18.8125 64.3125 
Q 13.671875 62.703125 7.8125 59.421875 
L 7.8125 69.390625 
Q 13.765625 71.78125 18.9375 73 
Q 24.125 74.21875 28.421875 74.21875 
Q 39.75 74.21875 46.484375 68.546875 
Q 53.21875 62.890625 53.21875 53.421875 
Q 53.21875 48.921875 51.53125 44.890625 
Q 49.859375 40.875 45.40625 35.40625 
Q 44.1875 33.984375 37.640625 27.21875 
Q 31.109375 20.453125 19.1875 8.296875 
z
" id="DejaVuSans-50"/>
       </defs>
       <use xlink:href="#DejaVuSans-48"/>
       <use x="63.623047" xlink:href="#DejaVuSans-46"/>
       <use x="95.410156" xlink:href="#DejaVuSans-50"/>
      </g>
     </g>
    </g>
    <g id="xtick_3">
     <g id="line2d_3">
      <g>
       <use style="stroke:#000000;stroke-width:0.8;" x="313.2" xlink:href="#mafd07b0d61" y="640.8"/>
      </g>
     </g>
     <g id="text_3">
      <!-- 0.4 -->
      <g transform="translate(299.4597 660.9301)scale(0.1728 -0.1728)">
       <defs>
        <path d="M 37.796875 64.3125 
L 12.890625 25.390625 
L 37.796875 25.390625 
z
M 35.203125 72.90625 
L 47.609375 72.90625 
L 47.609375 25.390625 
L 58.015625 25.390625 
L 58.015625 17.1875 
L 47.609375 17.1875 
L 47.609375 0 
L 37.796875 0 
L 37.796875 17.1875 
L 4.890625 17.1875 
L 4.890625 26.703125 
z
" id="DejaVuSans-52"/>
       </defs>
       <use xlink:href="#DejaVuSans-48"/>
       <use x="63.623047" xlink:href="#DejaVuSans-46"/>
       <use x="95.410156" xlink:href="#DejaVuSans-52"/>
      </g>
     </g>
    </g>
    <g id="xtick_4">
     <g id="line2d_4">
      <g>
       <use style="stroke:#000000;stroke-width:0.8;" x="424.8" xlink:href="#mafd07b0d61" y="640.8"/>
      </g>
     </g>
     <g id="text_4">
      <!-- 0.6 -->
      <g transform="translate(411.0597 660.9301)scale(0.1728 -0.1728)">
       <defs>
        <path d="M 33.015625 40.375 
Q 26.375 40.375 22.484375 35.828125 
Q 18.609375 31.296875 18.609375 23.390625 
Q 18.609375 15.53125 22.484375 10.953125 
Q 26.375 6.390625 33.015625 6.390625 
Q 39.65625 6.390625 43.53125 10.953125 
Q 47.40625 15.53125 47.40625 23.390625 
Q 47.40625 31.296875 43.53125 35.828125 
Q 39.65625 40.375 33.015625 40.375 
z
M 52.59375 71.296875 
L 52.59375 62.3125 
Q 48.875 64.0625 45.09375 64.984375 
Q 41.3125 65.921875 37.59375 65.921875 
Q 27.828125 65.921875 22.671875 59.328125 
Q 17.53125 52.734375 16.796875 39.40625 
Q 19.671875 43.65625 24.015625 45.921875 
Q 28.375 48.1875 33.59375 48.1875 
Q 44.578125 48.1875 50.953125 41.515625 
Q 57.328125 34.859375 57.328125 23.390625 
Q 57.328125 12.15625 50.6875 5.359375 
Q 44.046875 -1.421875 33.015625 -1.421875 
Q 20.359375 -1.421875 13.671875 8.265625 
Q 6.984375 17.96875 6.984375 36.375 
Q 6.984375 53.65625 15.1875 63.9375 
Q 23.390625 74.21875 37.203125 74.21875 
Q 40.921875 74.21875 44.703125 73.484375 
Q 48.484375 72.75 52.59375 71.296875 
z
" id="DejaVuSans-54"/>
       </defs>
       <use xlink:href="#DejaVuSans-48"/>
       <use x="63.623047" xlink:href="#DejaVuSans-46"/>
       <use x="95.410156" xlink:href="#DejaVuSans-54"/>
      </g>
     </g>
    </g>
    <g id="xtick_5">
     <g id="line2d_5">
      <g>
       <use style="stroke:#000000;stroke-width:0.8;" x="536.4" xlink:href="#mafd07b0d61" y="640.8"/>
      </g>
     </g>
     <g id="text_5">
      <!-- 0.8 -->
      <g transform="translate(522.6597 660.9301)scale(0.1728 -0.1728)">
       <defs>
        <path d="M 31.78125 34.625 
Q 24.75 34.625 20.71875 30.859375 
Q 16.703125 27.09375 16.703125 20.515625 
Q 16.703125 13.921875 20.71875 10.15625 
Q 24.75 6.390625 31.78125 6.390625 
Q 38.8125 6.390625 42.859375 10.171875 
Q 46.921875 13.96875 46.921875 20.515625 
Q 46.921875 27.09375 42.890625 30.859375 
Q 38.875 34.625 31.78125 34.625 
z
M 21.921875 38.8125 
Q 15.578125 40.375 12.03125 44.71875 
Q 8.5 49.078125 8.5 55.328125 
Q 8.5 64.0625 14.71875 69.140625 
Q 20.953125 74.21875 31.78125 74.21875 
Q 42.671875 74.21875 48.875 69.140625 
Q 55.078125 64.0625 55.078125 55.328125 
Q 55.078125 49.078125 51.53125 44.71875 
Q 48 40.375 41.703125 38.8125 
Q 48.828125 37.15625 52.796875 32.3125 
Q 56.78125 27.484375 56.78125 20.515625 
Q 56.78125 9.90625 50.3125 4.234375 
Q 43.84375 -1.421875 31.78125 -1.421875 
Q 19.734375 -1.421875 13.25 4.234375 
Q 6.78125 9.90625 6.78125 20.515625 
Q 6.78125 27.484375 10.78125 32.3125 
Q 14.796875 37.15625 21.921875 38.8125 
z
M 18.3125 54.390625 
Q 18.3125 48.734375 21.84375 45.5625 
Q 25.390625 42.390625 31.78125 42.390625 
Q 38.140625 42.390625 41.71875 45.5625 
Q 45.3125 48.734375 45.3125 54.390625 
Q 45.3125 60.0625 41.71875 63.234375 
Q 38.140625 66.40625 31.78125 66.40625 
Q 25.390625 66.40625 21.84375 63.234375 
Q 18.3125 60.0625 18.3125 54.390625 
z
" id="DejaVuSans-56"/>
       </defs>
       <use xlink:href="#DejaVuSans-48"/>
       <use x="63.623047" xlink:href="#DejaVuSans-46"/>
       <use x="95.410156" xlink:href="#DejaVuSans-56"/>
      </g>
     </g>
    </g>
    <g id="xtick_6">
     <g id="line2d_6">
      <g>
       <use style="stroke:#000000;stroke-width:0.8;" x="648" xlink:href="#mafd07b0d61" y="640.8"/>
      </g>
     </g>
     <g id="text_6">
      <!-- 1.0 -->
      <g transform="translate(634.2597 660.9301)scale(0.1728 -0.1728)">
       <defs>
        <path d="M 12.40625 8.296875 
L 28.515625 8.296875 
L 28.515625 63.921875 
L 10.984375 60.40625 
L 10.984375 69.390625 
L 28.421875 72.90625 
L 38.28125 72.90625 
L 38.28125 8.296875 
L 54.390625 8.296875 
L 54.390625 0 
L 12.40625 0 
z
" id="DejaVuSans-49"/>
       </defs>
       <use xlink:href="#DejaVuSans-49"/>
       <use x="63.623047" xlink:href="#DejaVuSans-46"/>
       <use x="95.410156" xlink:href="#DejaVuSans-48"/>
      </g>
     </g>
    </g>
    <g id="text_7">
     <!-- In-Lab -->
     <g transform="translate(342.2646 681.6539)scale(0.1728 -0.1728)">
      <defs>
       <path d="M 9.8125 72.90625 
L 19.671875 72.90625 
L 19.671875 0 
L 9.8125 0 
z
" id="DejaVuSans-73"/>
       <path d="M 54.890625 33.015625 
L 54.890625 0 
L 45.90625 0 
L 45.90625 32.71875 
Q 45.90625 40.484375 42.875 44.328125 
Q 39.84375 48.1875 33.796875 48.1875 
Q 26.515625 48.1875 22.3125 43.546875 
Q 18.109375 38.921875 18.109375 30.90625 
L 18.109375 0 
L 9.078125 0 
L 9.078125 54.6875 
L 18.109375 54.6875 
L 18.109375 46.1875 
Q 21.34375 51.125 25.703125 53.5625 
Q 30.078125 56 35.796875 56 
Q 45.21875 56 50.046875 50.171875 
Q 54.890625 44.34375 54.890625 33.015625 
z
" id="DejaVuSans-110"/>
       <path d="M 4.890625 31.390625 
L 31.203125 31.390625 
L 31.203125 23.390625 
L 4.890625 23.390625 
z
" id="DejaVuSans-45"/>
       <path d="M 9.8125 72.90625 
L 19.671875 72.90625 
L 19.671875 8.296875 
L 55.171875 8.296875 
L 55.171875 0 
L 9.8125 0 
z
" id="DejaVuSans-76"/>
       <path d="M 34.28125 27.484375 
Q 23.390625 27.484375 19.1875 25 
Q 14.984375 22.515625 14.984375 16.5 
Q 14.984375 11.71875 18.140625 8.90625 
Q 21.296875 6.109375 26.703125 6.109375 
Q 34.1875 6.109375 38.703125 11.40625 
Q 43.21875 16.703125 43.21875 25.484375 
L 43.21875 27.484375 
z
M 52.203125 31.203125 
L 52.203125 0 
L 43.21875 0 
L 43.21875 8.296875 
Q 40.140625 3.328125 35.546875 0.953125 
Q 30.953125 -1.421875 24.3125 -1.421875 
Q 15.921875 -1.421875 10.953125 3.296875 
Q 6 8.015625 6 15.921875 
Q 6 25.140625 12.171875 29.828125 
Q 18.359375 34.515625 30.609375 34.515625 
L 43.21875 34.515625 
L 43.21875 35.40625 
Q 43.21875 41.609375 39.140625 45 
Q 35.0625 48.390625 27.6875 48.390625 
Q 23 48.390625 18.546875 47.265625 
Q 14.109375 46.140625 10.015625 43.890625 
L 10.015625 52.203125 
Q 14.9375 54.109375 19.578125 55.046875 
Q 24.21875 56 28.609375 56 
Q 40.484375 56 46.34375 49.84375 
Q 52.203125 43.703125 52.203125 31.203125 
z
" id="DejaVuSans-97"/>
       <path d="M 48.6875 27.296875 
Q 48.6875 37.203125 44.609375 42.84375 
Q 40.53125 48.484375 33.40625 48.484375 
Q 26.265625 48.484375 22.1875 42.84375 
Q 18.109375 37.203125 18.109375 27.296875 
Q 18.109375 17.390625 22.1875 11.75 
Q 26.265625 6.109375 33.40625 6.109375 
Q 40.53125 6.109375 44.609375 11.75 
Q 48.6875 17.390625 48.6875 27.296875 
z
M 18.109375 46.390625 
Q 20.953125 51.265625 25.265625 53.625 
Q 29.59375 56 35.59375 56 
Q 45.5625 56 51.78125 48.09375 
Q 58.015625 40.1875 58.015625 27.296875 
Q 58.015625 14.40625 51.78125 6.484375 
Q 45.5625 -1.421875 35.59375 -1.421875 
Q 29.59375 -1.421875 25.265625 0.953125 
Q 20.953125 3.328125 18.109375 8.203125 
L 18.109375 0 
L 9.078125 0 
L 9.078125 75.984375 
L 18.109375 75.984375 
z
" id="DejaVuSans-98"/>
      </defs>
      <use xlink:href="#DejaVuSans-73"/>
      <use x="29.492188" xlink:href="#DejaVuSans-110"/>
      <use x="92.871094" xlink:href="#DejaVuSans-45"/>
      <use x="128.955078" xlink:href="#DejaVuSans-76"/>
      <use x="184.667969" xlink:href="#DejaVuSans-97"/>
      <use x="245.947266" xlink:href="#DejaVuSans-98"/>
     </g>
    </g>
   </g>
   <g id="matplotlib.axis_2">
    <g id="ytick_1">
     <g id="line2d_7">
      <defs>
       <path d="M 0 0 
L -3.5 0 
" id="m9a146533b1" style="stroke:#000000;stroke-width:0.8;"/>
      </defs>
      <g>
       <use style="stroke:#000000;stroke-width:0.8;" x="90" xlink:href="#m9a146533b1" y="640.8"/>
      </g>
     </g>
     <g id="text_8">
      <!-- 0.0 -->
      <g transform="translate(55.5194 647.36505)scale(0.1728 -0.1728)">
       <use xlink:href="#DejaVuSans-48"/>
       <use x="63.623047" xlink:href="#DejaVuSans-46"/>
       <use x="95.410156" xlink:href="#DejaVuSans-48"/>
      </g>
     </g>
    </g>
    <g id="ytick_2">
     <g id="line2d_8">
      <g>
       <use style="stroke:#000000;stroke-width:0.8;" x="90" xlink:href="#m9a146533b1" y="529.92"/>
      </g>
     </g>
     <g id="text_9">
      <!-- 0.2 -->
      <g transform="translate(55.5194 536.48505)scale(0.1728 -0.1728)">
       <use xlink:href="#DejaVuSans-48"/>
       <use x="63.623047" xlink:href="#DejaVuSans-46"/>
       <use x="95.410156" xlink:href="#DejaVuSans-50"/>
      </g>
     </g>
    </g>
    <g id="ytick_3">
     <g id="line2d_9">
      <g>
       <use style="stroke:#000000;stroke-width:0.8;" x="90" xlink:href="#m9a146533b1" y="419.04"/>
      </g>
     </g>
     <g id="text_10">
      <!-- 0.4 -->
      <g transform="translate(55.5194 425.60505)scale(0.1728 -0.1728)">
       <use xlink:href="#DejaVuSans-48"/>
       <use x="63.623047" xlink:href="#DejaVuSans-46"/>
       <use x="95.410156" xlink:href="#DejaVuSans-52"/>
      </g>
     </g>
    </g>
    <g id="ytick_4">
     <g id="line2d_10">
      <g>
       <use style="stroke:#000000;stroke-width:0.8;" x="90" xlink:href="#m9a146533b1" y="308.16"/>
      </g>
     </g>
     <g id="text_11">
      <!-- 0.6 -->
      <g transform="translate(55.5194 314.72505)scale(0.1728 -0.1728)">
       <use xlink:href="#DejaVuSans-48"/>
       <use x="63.623047" xlink:href="#DejaVuSans-46"/>
       <use x="95.410156" xlink:href="#DejaVuSans-54"/>
      </g>
     </g>
    </g>
    <g id="ytick_5">
     <g id="line2d_11">
      <g>
       <use style="stroke:#000000;stroke-width:0.8;" x="90" xlink:href="#m9a146533b1" y="197.28"/>
      </g>
     </g>
     <g id="text_12">
      <!-- 0.8 -->
      <g transform="translate(55.5194 203.84505)scale(0.1728 -0.1728)">
       <use xlink:href="#DejaVuSans-48"/>
       <use x="63.623047" xlink:href="#DejaVuSans-46"/>
       <use x="95.410156" xlink:href="#DejaVuSans-56"/>
      </g>
     </g>
    </g>
    <g id="ytick_6">
     <g id="line2d_12">
      <g>
       <use style="stroke:#000000;stroke-width:0.8;" x="90" xlink:href="#m9a146533b1" y="86.4"/>
      </g>
     </g>
     <g id="text_13">
      <!-- 1.0 -->
      <g transform="translate(55.5194 92.96505)scale(0.1728 -0.1728)">
       <use xlink:href="#DejaVuSans-49"/>
       <use x="63.623047" xlink:href="#DejaVuSans-46"/>
       <use x="95.410156" xlink:href="#DejaVuSans-48"/>
      </g>
     </g>
    </g>
    <g id="text_14">
     <!-- Online -->
     <g transform="translate(47.9257 391.4694)rotate(-90)scale(0.1728 -0.1728)">
      <defs>
       <path d="M 39.40625 66.21875 
Q 28.65625 66.21875 22.328125 58.203125 
Q 16.015625 50.203125 16.015625 36.375 
Q 16.015625 22.609375 22.328125 14.59375 
Q 28.65625 6.59375 39.40625 6.59375 
Q 50.140625 6.59375 56.421875 14.59375 
Q 62.703125 22.609375 62.703125 36.375 
Q 62.703125 50.203125 56.421875 58.203125 
Q 50.140625 66.21875 39.40625 66.21875 
z
M 39.40625 74.21875 
Q 54.734375 74.21875 63.90625 63.9375 
Q 73.09375 53.65625 73.09375 36.375 
Q 73.09375 19.140625 63.90625 8.859375 
Q 54.734375 -1.421875 39.40625 -1.421875 
Q 24.03125 -1.421875 14.8125 8.828125 
Q 5.609375 19.09375 5.609375 36.375 
Q 5.609375 53.65625 14.8125 63.9375 
Q 24.03125 74.21875 39.40625 74.21875 
z
" id="DejaVuSans-79"/>
       <path d="M 9.421875 75.984375 
L 18.40625 75.984375 
L 18.40625 0 
L 9.421875 0 
z
" id="DejaVuSans-108"/>
       <path d="M 9.421875 54.6875 
L 18.40625 54.6875 
L 18.40625 0 
L 9.421875 0 
z
M 9.421875 75.984375 
L 18.40625 75.984375 
L 18.40625 64.59375 
L 9.421875 64.59375 
z
" id="DejaVuSans-105"/>
       <path d="M 56.203125 29.59375 
L 56.203125 25.203125 
L 14.890625 25.203125 
Q 15.484375 15.921875 20.484375 11.0625 
Q 25.484375 6.203125 34.421875 6.203125 
Q 39.59375 6.203125 44.453125 7.46875 
Q 49.3125 8.734375 54.109375 11.28125 
L 54.109375 2.78125 
Q 49.265625 0.734375 44.1875 -0.34375 
Q 39.109375 -1.421875 33.890625 -1.421875 
Q 20.796875 -1.421875 13.15625 6.1875 
Q 5.515625 13.8125 5.515625 26.8125 
Q 5.515625 40.234375 12.765625 48.109375 
Q 20.015625 56 32.328125 56 
Q 43.359375 56 49.78125 48.890625 
Q 56.203125 41.796875 56.203125 29.59375 
z
M 47.21875 32.234375 
Q 47.125 39.59375 43.09375 43.984375 
Q 39.0625 48.390625 32.421875 48.390625 
Q 24.90625 48.390625 20.390625 44.140625 
Q 15.875 39.890625 15.1875 32.171875 
z
" id="DejaVuSans-101"/>
      </defs>
      <use xlink:href="#DejaVuSans-79"/>
      <use x="78.710938" xlink:href="#DejaVuSans-110"/>
      <use x="142.089844" xlink:href="#DejaVuSans-108"/>
      <use x="169.873047" xlink:href="#DejaVuSans-105"/>
      <use x="197.65625" xlink:href="#DejaVuSans-110"/>
      <use x="261.035156" xlink:href="#DejaVuSans-101"/>
     </g>
    </g>
   </g>
   <g id="line2d_13">
    <path clip-path="url(#p1e0a4d7596)" d="M 90 640.8 
L 648 86.4 
" style="fill:none;stroke:#008000;stroke-linecap:square;stroke-width:1.5;"/>
   </g>
   <g id="patch_3">
    <path d="M 90 640.8 
L 90 86.4 
" style="fill:none;stroke:#000000;stroke-linecap:square;stroke-linejoin:miter;stroke-width:0.8;"/>
   </g>
   <g id="patch_4">
    <path d="M 648 640.8 
L 648 86.4 
" style="fill:none;stroke:#000000;stroke-linecap:square;stroke-linejoin:miter;stroke-width:0.8;"/>
   </g>
   <g id="patch_5">
    <path d="M 90 640.8 
L 648 640.8 
" style="fill:none;stroke:#000000;stroke-linecap:square;stroke-linejoin:miter;stroke-width:0.8;"/>
   </g>
   <g id="patch_6">
    <path d="M 90 86.4 
L 648 86.4 
" style="fill:none;stroke:#000000;stroke-linecap:square;stroke-linejoin:miter;stroke-width:0.8;"/>
   </g>
  </g>
 </g>
 <defs>
  <clipPath id="p1e0a4d7596">
   <rect height="554.4" width="558" x="90" y="86.4"/>
  </clipPath>
 </defs>
</svg>
